<svg xmlns="http://www.w3.org/2000/svg" version="1.1" xmlns:xlink="http://www.w3.org/1999/xlink" xmlns:svgjs="http://svgjs.com/svgjs" width="300" height="300.13"><svg xmlns="http://www.w3.org/2000/svg" viewBox="0 0 300 300.13"><defs><style>.cls-1{fill:#ffc200;}.cls-2{fill:#677079;}.cls-3{fill:#434955;}.cls-4{fill:#e6e6e6;}.cls-5{fill:#dec492;}.cls-6{fill:#eddab7;}.cls-7{fill:#8a5c42;}.cls-8{fill:#f9dca4;}.cls-9{fill:#ffe3b3;}</style></defs><g id="SvgjsG1016" data-name="Layer 2"><g id="SvgjsG1015"><g id="SvgjsG1014" data-name="profile picture"><path class="cls-1" d="M300,150a150,150,0,0,1-124.45,147.8l-1.46.24c-.82.13-1.64.26-2.45.37l-1.75.25A151.59,151.59,0,0,1,150,299.93a149.8,149.8,0,0,1-23-1.76h0l-.5-.07-3-.5-1.46-.27A150,150,0,1,1,300,150Z"></path><g id="SvgjsG1013"><path id="SvgjsPath1012" class="cls-2" d="M221.85,221.35c8.24-18.12-2.1-50.27-20.93-57.8-.24,0-.45,0-.65,0-1.24.09-1.56.59-2.62,3.07a116.64,116.64,0,0,1-10.87,19.58c-.3,11.8.08,25.28-5.09,33.72a17.58,17.58,0,0,1-1.29,2.83h0a44.91,44.91,0,0,1-8.58,10.37l0,0c-1.65,1.54-3.41,3-5.2,4.45,0,0,0,0-.06,0-5.43,4.28-11.17,7.75-15.23,9.24a17.84,17.84,0,0,1-1.89.58h-.09A67.77,67.77,0,0,1,133.11,236q-1.8-1.74-3.42-3.61c-.47-.55-.92-1.1-1.37-1.65a52.09,52.09,0,0,1-4.3-6.25l-.12-.2a48.51,48.51,0,0,1-6.5-24,55.15,55.15,0,0,1,.28-6c-.1-.11-.19-.23-.29-.35-.68-.83-1.38-1.7-2.07-2.6-.34-.44-.69-.9-1-1.36h0l-.69-.94-1-1.38-.78-1.12c-.18-.25-.35-.52-.54-.78l-.64-1-.52-.79-.67-1h0a110.38,110.38,0,0,1-5.87-10.25c-2.46-4.91-2.63-5.08-4.5-5.08h0c-2.57,0-7,3.74-11.45,9.52-9.36,11.18-11,28-8.24,41.62.23,1-.41,1.52-4.27,3.33-14,7.29-28.69,17.23-33.78,31.43a149.67,149.67,0,0,0,80.72,44c.49.1,1,.19,1.46.27-.07-4.48,0-21.75-.42-29.62-.13-2.52-.31-4.08-.57-3.93a1.81,1.81,0,0,0-.69.54c-.83,1.11.57,2.41-5-1.35-9.23-6.18-17.59-15.19-21.34-23.91,6.48,6.9,15.71,15.16,23,19.29,1.81,1,3.27,2.22,3.27,2.69a1.42,1.42,0,0,0,.08.18h0c.55,1.15,1.51.76,1.67-.8a5,5,0,0,0,0-1.09c0-2.92,1.23-5.2,2.11-3.85.37.29.57,3.21.86,5.78.24,2.06.53,3.9,1,4a1,1,0,0,0,.69-.61h0c.3-.93-1-2.08,4-.19,6.6,2.28,11.45,2.86,20,2.51,7,0,12.08-1.55,16.6-2.75.42.16.25,3.66.29,4.51-8.43,2.78-17.61,5-25.37,3.79-7.77-.87-15-2.92-15.37-4.26l-.19-.36h0c-.74-1.3-1.21-.3-1.49,2v0h0v0h0c-.67,5.8-.26,19.67-.18,27.86l.5.07h0a149.81,149.81,0,0,0,23,1.75,151.6,151.6,0,0,0,19.89-1.3l1.75-.25c-.06-13.76-.23-41.19.23-42.86,1.39-1.27,2.06,1.56,2.4,4.17.24,1.89.29,3.66.29,3.66s-.05,1.57-.11,4.09c-.18,7.18-.51,22.12-.36,30.57l1.46-.24a149.78,149.78,0,0,0,80.85-42.08C251,240.74,236.37,229.44,221.85,221.35ZM180.4,259c-3.3,1.95-4.62,2.93-4.88,4.13h0a2.57,2.57,0,0,0,0,1.07,11.46,11.46,0,0,0,.5,1.63,36.9,36.9,0,0,0,5.38-2.92c10.07-5.68,19.17-14.81,23.56-24.25C197.15,246.31,189.07,254,180.4,259Z"></path></g><g id="SvgjsG1011"><path id="SvgjsPath1010" class="cls-3" d="M139.89,274.53a98.12,98.12,0,0,1-13.15-3.16c-.09-2.4-.27-7.24-.35-9.64,2.36-.12,4.12.33,7.42,1.34,9.3,3.16,19.94,3.57,28.71,1.06a24.24,24.24,0,0,1,8.36-1.23v8C160.52,274.34,150.78,276.18,139.89,274.53Z"></path><path id="SvgjsPath1009" class="cls-3" d="M115,265.18c-8.92-5.35-26.94-25.27-19.53-27.41,1.41,0,2.69,1,7,5.2a89.68,89.68,0,0,0,21.1,15.9v9.29C120.28,268.28,119.39,268,115,265.18Z"></path><path id="SvgjsPath1008" class="cls-3" d="M173.8,263.89v-3.74c8.86-5.17,15.26-9.54,23.15-17.3,4.91-4.73,6.25-5.67,7.77-5.67s1.82.18,1.82,1.81c0,8.25-22.9,30-32.74,28.58Z"></path></g><g id="SvgjsG1007"><path class="cls-4" d="M127,298.37h0l-.5-.07-3-.51c-.49-.08-1-.17-1.46-.27l-.17-21c0-3.26,0-6,0-8.35,0-1.25,0-2.38,0-3.39,0-1.17,0-2.19,0-3.09h0c0-1.54,0-2.74.08-3.67.14-2.84.42-3.29,1-3.88,4.26-2.22,5.08-.92,5.23,7.63,0,1,0,2.11,0,3.32h0v3.23h0v3.48c0,1.58,0,3.28,0,5.11C128.2,293.62,128.39,297.71,127,298.37Z"></path><path class="cls-4" d="M175.55,276.34V298l-1.46.24c-.82.13-1.64.26-2.45.37l-1.75.25c-.13-4.8-.13-12.54-.07-22.59l0-5,.07-8.36.07-9c1.49-.45,3.2-1.46,4.38,0,.64.61.93,1.08,1.07,5.34,0,1.06.05,2.35.07,3.93h0v1.07c0,1,0,2.15,0,3.41C175.55,270,175.55,272.91,175.55,276.34Z"></path></g><path id="SvgjsPath1006" class="cls-5" d="M200.27,163.57a.63.63,0,0,0-.34,0c-1.05,0-1.75,1-3.86,6-1.46,3.27-2.8,6.07-3,6.24-15.62,28.49-44.31,50.93-72.78,21a16,16,0,0,0-2.92-2.86c-1.19-.93-2-1.46-2-2.34a2.46,2.46,0,0,0,0-.26,1.65,1.65,0,0,0-.86-1.26l-.17-.1h0a1.63,1.63,0,0,1-.69-.94.62.62,0,0,1,0-.13c0-.6-.5-.92-1-1.25s-.79-.58-.78-1.09v0c0-.43-.22-.76-.54-.78h0c-.42,0-.5-.48-.6-.95s-.18-.78-.52-.79h0c-.45,0-.53-.52-.62-1h0c-.07-.39-.14-.75-.38-.84-.81-.1-8.14-16.66-9.35-15.08a.67.67,0,0,0-.65.59c-.75,3.53,11.76,21.94,14.27,25.19,2.28,2.86,2.57,3.56,2.57,6.31,0,.11,0,.22,0,.33h0a12.14,12.14,0,0,0,.64,4c.52.94.52,1.29,0,1.46a23.78,23.78,0,0,0-.21,3.76c.19,14.9,12.68,29.73,29,39.49,2.28,1.35,4.21,2.46,4.38,2.46.76,0,13.51-7.37,16.72-9.65,19.36-13.36,22.55-30,22-53C190.12,185.81,203.24,164.43,200.27,163.57Zm-50.88,83.94c-2.81-1.74-7.11-4.15-9.73-6.35-2.28-2.23-2.28-1-4.27-3.4a10.11,10.11,0,0,0-2.28-1.76c-1.43-.88-2.8-1.67-3.42-3.61l0-.09c-.45-.51-.9-1-1.34-1.56a43.77,43.77,0,0,1-4.3-6.25l-.12-.2a52.82,52.82,0,0,1-4.47-10.84c-4.55-16.3,4.73,8,25.14,13.27,7.08,3,25.49,3,31.74.18,1-.35,1.05-.29.29.88a60.17,60.17,0,0,1-4.78,5.37l0,0a49.5,49.5,0,0,1-5.2,4.45s0,0-.06,0a112.19,112.19,0,0,1-11.18,7l-4.05,2.2a12.38,12.38,0,0,1-1.57.78Z"></path><path id="SvgjsPath1005" class="cls-6" d="M144.57,247.35c-20.53-11.41-30.44-31.71-28.47-49.91,10.56,25.18,43.32,38.58,67.58,23.5-4.07,11.47-23.93,25.69-33.91,29.1A25.36,25.36,0,0,1,144.57,247.35Z"></path><path id="SvgjsPath1004" class="cls-7" d="M204,140.92c.26-16.44-6.24-12.93-5.9-23.2-1.06-6.5,7.71-17.1,4.62-22-12-35-120.32-26.41-100,9.76,3.9,6.93,3.82,12.21-1.34,17.24-5.06,4.56-6.61,14.29-7.14,20.75,0,3.56-.4,4.26-2.63,4.26s-1.87.65-4.67-11.39a53.32,53.32,0,0,0-4.15-11.69C74.26,107.9,78.18,69.81,86.64,54c4.36-9.84,18.56-26.76,21.1-19.7.19,1.56-3.44,8-3.51,9.35,17.55-15.38,33.23-26.08,56.88-26.18,4.93-.52,2.8,4-.87,7-3.09,2.88-4.52,4.53-5.91,7.19,19.33-5.46,40.73-4.6,54.95,2.22,3.45,1.64,3.69,1.87,3.69,3.69s-.18,2-3,2.92c-4.55,1.52-11,4.56-10.75,5,8.55,1.31,21.18,4.05,27.65,9.36,2.74,1.6,3.57,5.11,1.05,6.07-2.4.59-7.13,5.38-8.53,8.65-1.46,3.45-1.41,5,.52,13.91,1.93,8.71,2.75,21,1.93,28.23-.71,14.29-9.16,15.64-10.64,30-1,6.42-2.68,7.52-6.84,7.19Z"></path><path id="SvgjsPath1003" class="cls-8" d="M98.74,167.52c-2.3-4.21-1.75-9.08-7-11.11-9.53-5.2-19.71-17.92-13.09-28.11,1.05-1.46,4.91-3.92,6.25-3.92.76,0,2.69,6,4.45,14,.85,3.7,2.63,11.57,3.21,7.07.35-1.92.47-1.75,2,3.22,1.58,5.14,2.28,7.13,5.32,14.84C102.36,169.91,101.37,173.48,98.74,167.52Z"></path><path id="SvgjsPath1002" class="cls-8" d="M198.94,164.19c.33-3.72,3.14-9.13,4.15-13.45,1.28-4.67,2.28-6.48,2.28-4.2,0,.81.29,1.22.76,1.11,5-2.78,3.63-20,10.11-22.68,14.87,7.56.81,28.9-10.82,32.38C202.67,156.83,199.43,170.28,198.94,164.19Z"></path><g id="SvgjsG1001"><path id="SvgjsPath1000" class="cls-9" d="M141.65,212.34c-22.93-4.92-41-34.88-48.17-60-3.1-7.67,1.93-29.42,6.66-31.5a9.62,9.62,0,0,0,2.63-2.92c1.11-2.17,1.11-6.32,0-8.19-30-45.93,100-51.16,102.07-11,.72,8.81-10.17,18.09-2.16,26.65,2.76,1.32,3.53,23.86,1.87,28.34C191.4,190.83,173.19,216,141.65,212.34Z"></path></g></g></g></g></svg><style>@media (prefers-color-scheme: light) { :root { filter: none; } }
</style></svg>